<?xml version="1.0" encoding="utf-8" standalone="no"?>
<!DOCTYPE svg PUBLIC "-//W3C//DTD SVG 1.1//EN"
  "http://www.w3.org/Graphics/SVG/1.1/DTD/svg11.dtd">
<svg xmlns:xlink="http://www.w3.org/1999/xlink" width="662.4pt" height="266.4pt" viewBox="0 0 662.4 266.4" xmlns="http://www.w3.org/2000/svg" version="1.1">
 <metadata>
  <rdf:RDF xmlns:dc="http://purl.org/dc/elements/1.1/" xmlns:cc="http://creativecommons.org/ns#" xmlns:rdf="http://www.w3.org/1999/02/22-rdf-syntax-ns#">
   <cc:Work>
    <dc:type rdf:resource="http://purl.org/dc/dcmitype/StillImage"/>
    <dc:date>2026-01-31T18:08:27.811002</dc:date>
    <dc:format>image/svg+xml</dc:format>
    <dc:creator>
     <cc:Agent>
      <dc:title>Matplotlib v3.7.2, https://matplotlib.org/</dc:title>
     </cc:Agent>
    </dc:creator>
   </cc:Work>
  </rdf:RDF>
 </metadata>
 <defs>
  <style type="text/css">*{stroke-linejoin: round; stroke-linecap: butt}</style>
 </defs>
 <g id="figure_1">
  <g id="patch_1">
   <path d="M 0 266.4 
L 662.4 266.4 
L 662.4 0 
L 0 0 
z
" style="fill: #ffffff"/>
  </g>
  <g id="axes_1">
   <g id="patch_2">
    <path d="M 47.81 207.485668 
L 651.6 207.485668 
L 651.6 25.44 
L 47.81 25.44 
z
" style="fill: #ffffff"/>
   </g>
   <g id="patch_3">
    <path d="M 75.255 207.485668 
L 113.010026 207.485668 
L 113.010026 41.941735 
L 75.255 41.941735 
z
" clip-path="url(#p359fd318bb)" style="fill: #1f77b4"/>
   </g>
   <g id="patch_4">
    <path d="M 220.46664 207.485668 
L 258.221667 207.485668 
L 258.221667 64.442196 
L 220.46664 64.442196 
z
" clip-path="url(#p359fd318bb)" style="fill: #1f77b4"/>
   </g>
   <g id="patch_5">
    <path d="M 365.67828 207.485668 
L 403.433307 207.485668 
L 403.433307 40.059018 
L 365.67828 40.059018 
z
" clip-path="url(#p359fd318bb)" style="fill: #1f77b4"/>
   </g>
   <g id="patch_6">
    <path d="M 510.889921 207.485668 
L 548.644947 207.485668 
L 548.644947 67.098365 
L 510.889921 67.098365 
z
" clip-path="url(#p359fd318bb)" style="fill: #1f77b4"/>
   </g>
   <g id="patch_7">
    <path d="M 113.010026 207.485668 
L 150.765053 207.485668 
L 150.765053 44.379271 
L 113.010026 44.379271 
z
" clip-path="url(#p359fd318bb)" style="fill: #ff7f0e"/>
   </g>
   <g id="patch_8">
    <path d="M 258.221667 207.485668 
L 295.976693 207.485668 
L 295.976693 73.813067 
L 258.221667 73.813067 
z
" clip-path="url(#p359fd318bb)" style="fill: #ff7f0e"/>
   </g>
   <g id="patch_9">
    <path d="M 403.433307 207.485668 
L 441.188333 207.485668 
L 441.188333 46.702773 
L 403.433307 46.702773 
z
" clip-path="url(#p359fd318bb)" style="fill: #ff7f0e"/>
   </g>
   <g id="patch_10">
    <path d="M 548.644947 207.485668 
L 586.399974 207.485668 
L 586.399974 181.861304 
L 548.644947 181.861304 
z
" clip-path="url(#p359fd318bb)" style="fill: #ff7f0e"/>
   </g>
   <g id="patch_11">
    <path d="M 150.765053 207.485668 
L 188.520079 207.485668 
L 188.520079 70.944485 
L 150.765053 70.944485 
z
" clip-path="url(#p359fd318bb)" style="fill: #2ca02c"/>
   </g>
   <g id="patch_12">
    <path d="M 295.976693 207.485668 
L 333.73172 207.485668 
L 333.73172 146.272793 
L 295.976693 146.272793 
z
" clip-path="url(#p359fd318bb)" style="fill: #2ca02c"/>
   </g>
   <g id="patch_13">
    <path d="M 441.188333 207.485668 
L 478.94336 207.485668 
L 478.94336 64.098881 
L 441.188333 64.098881 
z
" clip-path="url(#p359fd318bb)" style="fill: #2ca02c"/>
   </g>
   <g id="patch_14">
    <path d="M 586.399974 207.485668 
L 624.155 207.485668 
L 624.155 181.628285 
L 586.399974 181.628285 
z
" clip-path="url(#p359fd318bb)" style="fill: #2ca02c"/>
   </g>
   <g id="matplotlib.axis_1">
    <g id="xtick_1">
     <g id="line2d_1">
      <defs>
       <path id="m29d29d4009" d="M 0 0 
L 0 3.5 
" style="stroke: #000000; stroke-width: 0.8"/>
      </defs>
      <g>
       <use xlink:href="#m29d29d4009" x="131.88754" y="207.485668" style="stroke: #000000; stroke-width: 0.8"/>
      </g>
     </g>
     <g id="text_1">
      <!-- A_codebert_only -->
      <g transform="translate(50.558009 239.100988) rotate(-12) scale(0.1 -0.1)">
       <defs>
        <path id="DejaVuSans-41" d="M 2188 4044 
L 1331 1722 
L 3047 1722 
L 2188 4044 
z
M 1831 4666 
L 2547 4666 
L 4325 0 
L 3669 0 
L 3244 1197 
L 1141 1197 
L 716 0 
L 50 0 
L 1831 4666 
z
" transform="scale(0.015625)"/>
        <path id="DejaVuSans-5f" d="M 3263 -1063 
L 3263 -1509 
L -63 -1509 
L -63 -1063 
L 3263 -1063 
z
" transform="scale(0.015625)"/>
        <path id="DejaVuSans-63" d="M 3122 3366 
L 3122 2828 
Q 2878 2963 2633 3030 
Q 2388 3097 2138 3097 
Q 1578 3097 1268 2742 
Q 959 2388 959 1747 
Q 959 1106 1268 751 
Q 1578 397 2138 397 
Q 2388 397 2633 464 
Q 2878 531 3122 666 
L 3122 134 
Q 2881 22 2623 -34 
Q 2366 -91 2075 -91 
Q 1284 -91 818 406 
Q 353 903 353 1747 
Q 353 2603 823 3093 
Q 1294 3584 2113 3584 
Q 2378 3584 2631 3529 
Q 2884 3475 3122 3366 
z
" transform="scale(0.015625)"/>
        <path id="DejaVuSans-6f" d="M 1959 3097 
Q 1497 3097 1228 2736 
Q 959 2375 959 1747 
Q 959 1119 1226 758 
Q 1494 397 1959 397 
Q 2419 397 2687 759 
Q 2956 1122 2956 1747 
Q 2956 2369 2687 2733 
Q 2419 3097 1959 3097 
z
M 1959 3584 
Q 2709 3584 3137 3096 
Q 3566 2609 3566 1747 
Q 3566 888 3137 398 
Q 2709 -91 1959 -91 
Q 1206 -91 779 398 
Q 353 888 353 1747 
Q 353 2609 779 3096 
Q 1206 3584 1959 3584 
z
" transform="scale(0.015625)"/>
        <path id="DejaVuSans-64" d="M 2906 2969 
L 2906 4863 
L 3481 4863 
L 3481 0 
L 2906 0 
L 2906 525 
Q 2725 213 2448 61 
Q 2172 -91 1784 -91 
Q 1150 -91 751 415 
Q 353 922 353 1747 
Q 353 2572 751 3078 
Q 1150 3584 1784 3584 
Q 2172 3584 2448 3432 
Q 2725 3281 2906 2969 
z
M 947 1747 
Q 947 1113 1208 752 
Q 1469 391 1925 391 
Q 2381 391 2643 752 
Q 2906 1113 2906 1747 
Q 2906 2381 2643 2742 
Q 2381 3103 1925 3103 
Q 1469 3103 1208 2742 
Q 947 2381 947 1747 
z
" transform="scale(0.015625)"/>
        <path id="DejaVuSans-65" d="M 3597 1894 
L 3597 1613 
L 953 1613 
Q 991 1019 1311 708 
Q 1631 397 2203 397 
Q 2534 397 2845 478 
Q 3156 559 3463 722 
L 3463 178 
Q 3153 47 2828 -22 
Q 2503 -91 2169 -91 
Q 1331 -91 842 396 
Q 353 884 353 1716 
Q 353 2575 817 3079 
Q 1281 3584 2069 3584 
Q 2775 3584 3186 3129 
Q 3597 2675 3597 1894 
z
M 3022 2063 
Q 3016 2534 2758 2815 
Q 2500 3097 2075 3097 
Q 1594 3097 1305 2825 
Q 1016 2553 972 2059 
L 3022 2063 
z
" transform="scale(0.015625)"/>
        <path id="DejaVuSans-62" d="M 3116 1747 
Q 3116 2381 2855 2742 
Q 2594 3103 2138 3103 
Q 1681 3103 1420 2742 
Q 1159 2381 1159 1747 
Q 1159 1113 1420 752 
Q 1681 391 2138 391 
Q 2594 391 2855 752 
Q 3116 1113 3116 1747 
z
M 1159 2969 
Q 1341 3281 1617 3432 
Q 1894 3584 2278 3584 
Q 2916 3584 3314 3078 
Q 3713 2572 3713 1747 
Q 3713 922 3314 415 
Q 2916 -91 2278 -91 
Q 1894 -91 1617 61 
Q 1341 213 1159 525 
L 1159 0 
L 581 0 
L 581 4863 
L 1159 4863 
L 1159 2969 
z
" transform="scale(0.015625)"/>
        <path id="DejaVuSans-72" d="M 2631 2963 
Q 2534 3019 2420 3045 
Q 2306 3072 2169 3072 
Q 1681 3072 1420 2755 
Q 1159 2438 1159 1844 
L 1159 0 
L 581 0 
L 581 3500 
L 1159 3500 
L 1159 2956 
Q 1341 3275 1631 3429 
Q 1922 3584 2338 3584 
Q 2397 3584 2469 3576 
Q 2541 3569 2628 3553 
L 2631 2963 
z
" transform="scale(0.015625)"/>
        <path id="DejaVuSans-74" d="M 1172 4494 
L 1172 3500 
L 2356 3500 
L 2356 3053 
L 1172 3053 
L 1172 1153 
Q 1172 725 1289 603 
Q 1406 481 1766 481 
L 2356 481 
L 2356 0 
L 1766 0 
Q 1100 0 847 248 
Q 594 497 594 1153 
L 594 3053 
L 172 3053 
L 172 3500 
L 594 3500 
L 594 4494 
L 1172 4494 
z
" transform="scale(0.015625)"/>
        <path id="DejaVuSans-6e" d="M 3513 2113 
L 3513 0 
L 2938 0 
L 2938 2094 
Q 2938 2591 2744 2837 
Q 2550 3084 2163 3084 
Q 1697 3084 1428 2787 
Q 1159 2491 1159 1978 
L 1159 0 
L 581 0 
L 581 3500 
L 1159 3500 
L 1159 2956 
Q 1366 3272 1645 3428 
Q 1925 3584 2291 3584 
Q 2894 3584 3203 3211 
Q 3513 2838 3513 2113 
z
" transform="scale(0.015625)"/>
        <path id="DejaVuSans-6c" d="M 603 4863 
L 1178 4863 
L 1178 0 
L 603 0 
L 603 4863 
z
" transform="scale(0.015625)"/>
        <path id="DejaVuSans-79" d="M 2059 -325 
Q 1816 -950 1584 -1140 
Q 1353 -1331 966 -1331 
L 506 -1331 
L 506 -850 
L 844 -850 
Q 1081 -850 1212 -737 
Q 1344 -625 1503 -206 
L 1606 56 
L 191 3500 
L 800 3500 
L 1894 763 
L 2988 3500 
L 3597 3500 
L 2059 -325 
z
" transform="scale(0.015625)"/>
       </defs>
       <use xlink:href="#DejaVuSans-41"/>
       <use xlink:href="#DejaVuSans-5f" x="68.408203"/>
       <use xlink:href="#DejaVuSans-63" x="118.408203"/>
       <use xlink:href="#DejaVuSans-6f" x="173.388672"/>
       <use xlink:href="#DejaVuSans-64" x="234.570312"/>
       <use xlink:href="#DejaVuSans-65" x="298.046875"/>
       <use xlink:href="#DejaVuSans-62" x="359.570312"/>
       <use xlink:href="#DejaVuSans-65" x="423.046875"/>
       <use xlink:href="#DejaVuSans-72" x="484.570312"/>
       <use xlink:href="#DejaVuSans-74" x="525.683594"/>
       <use xlink:href="#DejaVuSans-5f" x="564.892578"/>
       <use xlink:href="#DejaVuSans-6f" x="614.892578"/>
       <use xlink:href="#DejaVuSans-6e" x="676.074219"/>
       <use xlink:href="#DejaVuSans-6c" x="739.453125"/>
       <use xlink:href="#DejaVuSans-79" x="767.236328"/>
      </g>
     </g>
    </g>
    <g id="xtick_2">
     <g id="line2d_2">
      <g>
       <use xlink:href="#m29d29d4009" x="277.09918" y="207.485668" style="stroke: #000000; stroke-width: 0.8"/>
      </g>
     </g>
     <g id="text_2">
      <!-- B_shallow_struct -->
      <g transform="translate(195.045208 239.254973) rotate(-12) scale(0.1 -0.1)">
       <defs>
        <path id="DejaVuSans-42" d="M 1259 2228 
L 1259 519 
L 2272 519 
Q 2781 519 3026 730 
Q 3272 941 3272 1375 
Q 3272 1813 3026 2020 
Q 2781 2228 2272 2228 
L 1259 2228 
z
M 1259 4147 
L 1259 2741 
L 2194 2741 
Q 2656 2741 2882 2914 
Q 3109 3088 3109 3444 
Q 3109 3797 2882 3972 
Q 2656 4147 2194 4147 
L 1259 4147 
z
M 628 4666 
L 2241 4666 
Q 2963 4666 3353 4366 
Q 3744 4066 3744 3513 
Q 3744 3084 3544 2831 
Q 3344 2578 2956 2516 
Q 3422 2416 3680 2098 
Q 3938 1781 3938 1306 
Q 3938 681 3513 340 
Q 3088 0 2303 0 
L 628 0 
L 628 4666 
z
" transform="scale(0.015625)"/>
        <path id="DejaVuSans-73" d="M 2834 3397 
L 2834 2853 
Q 2591 2978 2328 3040 
Q 2066 3103 1784 3103 
Q 1356 3103 1142 2972 
Q 928 2841 928 2578 
Q 928 2378 1081 2264 
Q 1234 2150 1697 2047 
L 1894 2003 
Q 2506 1872 2764 1633 
Q 3022 1394 3022 966 
Q 3022 478 2636 193 
Q 2250 -91 1575 -91 
Q 1294 -91 989 -36 
Q 684 19 347 128 
L 347 722 
Q 666 556 975 473 
Q 1284 391 1588 391 
Q 1994 391 2212 530 
Q 2431 669 2431 922 
Q 2431 1156 2273 1281 
Q 2116 1406 1581 1522 
L 1381 1569 
Q 847 1681 609 1914 
Q 372 2147 372 2553 
Q 372 3047 722 3315 
Q 1072 3584 1716 3584 
Q 2034 3584 2315 3537 
Q 2597 3491 2834 3397 
z
" transform="scale(0.015625)"/>
        <path id="DejaVuSans-68" d="M 3513 2113 
L 3513 0 
L 2938 0 
L 2938 2094 
Q 2938 2591 2744 2837 
Q 2550 3084 2163 3084 
Q 1697 3084 1428 2787 
Q 1159 2491 1159 1978 
L 1159 0 
L 581 0 
L 581 4863 
L 1159 4863 
L 1159 2956 
Q 1366 3272 1645 3428 
Q 1925 3584 2291 3584 
Q 2894 3584 3203 3211 
Q 3513 2838 3513 2113 
z
" transform="scale(0.015625)"/>
        <path id="DejaVuSans-61" d="M 2194 1759 
Q 1497 1759 1228 1600 
Q 959 1441 959 1056 
Q 959 750 1161 570 
Q 1363 391 1709 391 
Q 2188 391 2477 730 
Q 2766 1069 2766 1631 
L 2766 1759 
L 2194 1759 
z
M 3341 1997 
L 3341 0 
L 2766 0 
L 2766 531 
Q 2569 213 2275 61 
Q 1981 -91 1556 -91 
Q 1019 -91 701 211 
Q 384 513 384 1019 
Q 384 1609 779 1909 
Q 1175 2209 1959 2209 
L 2766 2209 
L 2766 2266 
Q 2766 2663 2505 2880 
Q 2244 3097 1772 3097 
Q 1472 3097 1187 3025 
Q 903 2953 641 2809 
L 641 3341 
Q 956 3463 1253 3523 
Q 1550 3584 1831 3584 
Q 2591 3584 2966 3190 
Q 3341 2797 3341 1997 
z
" transform="scale(0.015625)"/>
        <path id="DejaVuSans-77" d="M 269 3500 
L 844 3500 
L 1563 769 
L 2278 3500 
L 2956 3500 
L 3675 769 
L 4391 3500 
L 4966 3500 
L 4050 0 
L 3372 0 
L 2619 2869 
L 1863 0 
L 1184 0 
L 269 3500 
z
" transform="scale(0.015625)"/>
        <path id="DejaVuSans-75" d="M 544 1381 
L 544 3500 
L 1119 3500 
L 1119 1403 
Q 1119 906 1312 657 
Q 1506 409 1894 409 
Q 2359 409 2629 706 
Q 2900 1003 2900 1516 
L 2900 3500 
L 3475 3500 
L 3475 0 
L 2900 0 
L 2900 538 
Q 2691 219 2414 64 
Q 2138 -91 1772 -91 
Q 1169 -91 856 284 
Q 544 659 544 1381 
z
M 1991 3584 
L 1991 3584 
z
" transform="scale(0.015625)"/>
       </defs>
       <use xlink:href="#DejaVuSans-42"/>
       <use xlink:href="#DejaVuSans-5f" x="68.603516"/>
       <use xlink:href="#DejaVuSans-73" x="118.603516"/>
       <use xlink:href="#DejaVuSans-68" x="170.703125"/>
       <use xlink:href="#DejaVuSans-61" x="234.082031"/>
       <use xlink:href="#DejaVuSans-6c" x="295.361328"/>
       <use xlink:href="#DejaVuSans-6c" x="323.144531"/>
       <use xlink:href="#DejaVuSans-6f" x="350.927734"/>
       <use xlink:href="#DejaVuSans-77" x="412.109375"/>
       <use xlink:href="#DejaVuSans-5f" x="493.896484"/>
       <use xlink:href="#DejaVuSans-73" x="543.896484"/>
       <use xlink:href="#DejaVuSans-74" x="595.996094"/>
       <use xlink:href="#DejaVuSans-72" x="635.205078"/>
       <use xlink:href="#DejaVuSans-75" x="676.318359"/>
       <use xlink:href="#DejaVuSans-63" x="739.697266"/>
       <use xlink:href="#DejaVuSans-74" x="794.677734"/>
      </g>
     </g>
    </g>
    <g id="xtick_3">
     <g id="line2d_3">
      <g>
       <use xlink:href="#m29d29d4009" x="422.31082" y="207.485668" style="stroke: #000000; stroke-width: 0.8"/>
      </g>
     </g>
     <g id="text_3">
      <!-- C_multimodal_no_disentangle -->
      <g transform="translate(275.489722 253.02165) rotate(-12) scale(0.1 -0.1)">
       <defs>
        <path id="DejaVuSans-43" d="M 4122 4306 
L 4122 3641 
Q 3803 3938 3442 4084 
Q 3081 4231 2675 4231 
Q 1875 4231 1450 3742 
Q 1025 3253 1025 2328 
Q 1025 1406 1450 917 
Q 1875 428 2675 428 
Q 3081 428 3442 575 
Q 3803 722 4122 1019 
L 4122 359 
Q 3791 134 3420 21 
Q 3050 -91 2638 -91 
Q 1578 -91 968 557 
Q 359 1206 359 2328 
Q 359 3453 968 4101 
Q 1578 4750 2638 4750 
Q 3056 4750 3426 4639 
Q 3797 4528 4122 4306 
z
" transform="scale(0.015625)"/>
        <path id="DejaVuSans-6d" d="M 3328 2828 
Q 3544 3216 3844 3400 
Q 4144 3584 4550 3584 
Q 5097 3584 5394 3201 
Q 5691 2819 5691 2113 
L 5691 0 
L 5113 0 
L 5113 2094 
Q 5113 2597 4934 2840 
Q 4756 3084 4391 3084 
Q 3944 3084 3684 2787 
Q 3425 2491 3425 1978 
L 3425 0 
L 2847 0 
L 2847 2094 
Q 2847 2600 2669 2842 
Q 2491 3084 2119 3084 
Q 1678 3084 1418 2786 
Q 1159 2488 1159 1978 
L 1159 0 
L 581 0 
L 581 3500 
L 1159 3500 
L 1159 2956 
Q 1356 3278 1631 3431 
Q 1906 3584 2284 3584 
Q 2666 3584 2933 3390 
Q 3200 3197 3328 2828 
z
" transform="scale(0.015625)"/>
        <path id="DejaVuSans-69" d="M 603 3500 
L 1178 3500 
L 1178 0 
L 603 0 
L 603 3500 
z
M 603 4863 
L 1178 4863 
L 1178 4134 
L 603 4134 
L 603 4863 
z
" transform="scale(0.015625)"/>
        <path id="DejaVuSans-67" d="M 2906 1791 
Q 2906 2416 2648 2759 
Q 2391 3103 1925 3103 
Q 1463 3103 1205 2759 
Q 947 2416 947 1791 
Q 947 1169 1205 825 
Q 1463 481 1925 481 
Q 2391 481 2648 825 
Q 2906 1169 2906 1791 
z
M 3481 434 
Q 3481 -459 3084 -895 
Q 2688 -1331 1869 -1331 
Q 1566 -1331 1297 -1286 
Q 1028 -1241 775 -1147 
L 775 -588 
Q 1028 -725 1275 -790 
Q 1522 -856 1778 -856 
Q 2344 -856 2625 -561 
Q 2906 -266 2906 331 
L 2906 616 
Q 2728 306 2450 153 
Q 2172 0 1784 0 
Q 1141 0 747 490 
Q 353 981 353 1791 
Q 353 2603 747 3093 
Q 1141 3584 1784 3584 
Q 2172 3584 2450 3431 
Q 2728 3278 2906 2969 
L 2906 3500 
L 3481 3500 
L 3481 434 
z
" transform="scale(0.015625)"/>
       </defs>
       <use xlink:href="#DejaVuSans-43"/>
       <use xlink:href="#DejaVuSans-5f" x="69.824219"/>
       <use xlink:href="#DejaVuSans-6d" x="119.824219"/>
       <use xlink:href="#DejaVuSans-75" x="217.236328"/>
       <use xlink:href="#DejaVuSans-6c" x="280.615234"/>
       <use xlink:href="#DejaVuSans-74" x="308.398438"/>
       <use xlink:href="#DejaVuSans-69" x="347.607422"/>
       <use xlink:href="#DejaVuSans-6d" x="375.390625"/>
       <use xlink:href="#DejaVuSans-6f" x="472.802734"/>
       <use xlink:href="#DejaVuSans-64" x="533.984375"/>
       <use xlink:href="#DejaVuSans-61" x="597.460938"/>
       <use xlink:href="#DejaVuSans-6c" x="658.740234"/>
       <use xlink:href="#DejaVuSans-5f" x="686.523438"/>
       <use xlink:href="#DejaVuSans-6e" x="736.523438"/>
       <use xlink:href="#DejaVuSans-6f" x="799.902344"/>
       <use xlink:href="#DejaVuSans-5f" x="861.083984"/>
       <use xlink:href="#DejaVuSans-64" x="911.083984"/>
       <use xlink:href="#DejaVuSans-69" x="974.560547"/>
       <use xlink:href="#DejaVuSans-73" x="1002.34375"/>
       <use xlink:href="#DejaVuSans-65" x="1054.443359"/>
       <use xlink:href="#DejaVuSans-6e" x="1115.966797"/>
       <use xlink:href="#DejaVuSans-74" x="1179.345703"/>
       <use xlink:href="#DejaVuSans-61" x="1218.554688"/>
       <use xlink:href="#DejaVuSans-6e" x="1279.833984"/>
       <use xlink:href="#DejaVuSans-67" x="1343.212891"/>
       <use xlink:href="#DejaVuSans-6c" x="1406.689453"/>
       <use xlink:href="#DejaVuSans-65" x="1434.472656"/>
      </g>
     </g>
    </g>
    <g id="xtick_4">
     <g id="line2d_4">
      <g>
       <use xlink:href="#m29d29d4009" x="567.52246" y="207.485668" style="stroke: #000000; stroke-width: 0.8"/>
      </g>
     </g>
     <g id="text_4">
      <!-- D_full -->
      <g transform="translate(539.532541 227.763304) rotate(-12) scale(0.1 -0.1)">
       <defs>
        <path id="DejaVuSans-44" d="M 1259 4147 
L 1259 519 
L 2022 519 
Q 2988 519 3436 956 
Q 3884 1394 3884 2338 
Q 3884 3275 3436 3711 
Q 2988 4147 2022 4147 
L 1259 4147 
z
M 628 4666 
L 1925 4666 
Q 3281 4666 3915 4102 
Q 4550 3538 4550 2338 
Q 4550 1131 3912 565 
Q 3275 0 1925 0 
L 628 0 
L 628 4666 
z
" transform="scale(0.015625)"/>
        <path id="DejaVuSans-66" d="M 2375 4863 
L 2375 4384 
L 1825 4384 
Q 1516 4384 1395 4259 
Q 1275 4134 1275 3809 
L 1275 3500 
L 2222 3500 
L 2222 3053 
L 1275 3053 
L 1275 0 
L 697 0 
L 697 3053 
L 147 3053 
L 147 3500 
L 697 3500 
L 697 3744 
Q 697 4328 969 4595 
Q 1241 4863 1831 4863 
L 2375 4863 
z
" transform="scale(0.015625)"/>
       </defs>
       <use xlink:href="#DejaVuSans-44"/>
       <use xlink:href="#DejaVuSans-5f" x="77.001953"/>
       <use xlink:href="#DejaVuSans-66" x="127.001953"/>
       <use xlink:href="#DejaVuSans-75" x="162.207031"/>
       <use xlink:href="#DejaVuSans-6c" x="225.585938"/>
       <use xlink:href="#DejaVuSans-6c" x="253.369141"/>
      </g>
     </g>
    </g>
   </g>
   <g id="matplotlib.axis_2">
    <g id="ytick_1">
     <g id="line2d_5">
      <path d="M 47.81 207.485668 
L 651.6 207.485668 
" clip-path="url(#p359fd318bb)" style="fill: none; stroke: #b0b0b0; stroke-opacity: 0.3; stroke-width: 0.8; stroke-linecap: square"/>
     </g>
     <g id="line2d_6">
      <defs>
       <path id="mf3976f013d" d="M 0 0 
L -3.5 0 
" style="stroke: #000000; stroke-width: 0.8"/>
      </defs>
      <g>
       <use xlink:href="#mf3976f013d" x="47.81" y="207.485668" style="stroke: #000000; stroke-width: 0.8"/>
      </g>
     </g>
     <g id="text_5">
      <!-- 0.0 -->
      <g transform="translate(24.906875 211.284887) scale(0.1 -0.1)">
       <defs>
        <path id="DejaVuSans-30" d="M 2034 4250 
Q 1547 4250 1301 3770 
Q 1056 3291 1056 2328 
Q 1056 1369 1301 889 
Q 1547 409 2034 409 
Q 2525 409 2770 889 
Q 3016 1369 3016 2328 
Q 3016 3291 2770 3770 
Q 2525 4250 2034 4250 
z
M 2034 4750 
Q 2819 4750 3233 4129 
Q 3647 3509 3647 2328 
Q 3647 1150 3233 529 
Q 2819 -91 2034 -91 
Q 1250 -91 836 529 
Q 422 1150 422 2328 
Q 422 3509 836 4129 
Q 1250 4750 2034 4750 
z
" transform="scale(0.015625)"/>
        <path id="DejaVuSans-2e" d="M 684 794 
L 1344 794 
L 1344 0 
L 684 0 
L 684 794 
z
" transform="scale(0.015625)"/>
       </defs>
       <use xlink:href="#DejaVuSans-30"/>
       <use xlink:href="#DejaVuSans-2e" x="63.623047"/>
       <use xlink:href="#DejaVuSans-30" x="95.410156"/>
      </g>
     </g>
    </g>
    <g id="ytick_2">
     <g id="line2d_7">
      <path d="M 47.81 179.580329 
L 651.6 179.580329 
" clip-path="url(#p359fd318bb)" style="fill: none; stroke: #b0b0b0; stroke-opacity: 0.3; stroke-width: 0.8; stroke-linecap: square"/>
     </g>
     <g id="line2d_8">
      <g>
       <use xlink:href="#mf3976f013d" x="47.81" y="179.580329" style="stroke: #000000; stroke-width: 0.8"/>
      </g>
     </g>
     <g id="text_6">
      <!-- 0.2 -->
      <g transform="translate(24.906875 183.379548) scale(0.1 -0.1)">
       <defs>
        <path id="DejaVuSans-32" d="M 1228 531 
L 3431 531 
L 3431 0 
L 469 0 
L 469 531 
Q 828 903 1448 1529 
Q 2069 2156 2228 2338 
Q 2531 2678 2651 2914 
Q 2772 3150 2772 3378 
Q 2772 3750 2511 3984 
Q 2250 4219 1831 4219 
Q 1534 4219 1204 4116 
Q 875 4013 500 3803 
L 500 4441 
Q 881 4594 1212 4672 
Q 1544 4750 1819 4750 
Q 2544 4750 2975 4387 
Q 3406 4025 3406 3419 
Q 3406 3131 3298 2873 
Q 3191 2616 2906 2266 
Q 2828 2175 2409 1742 
Q 1991 1309 1228 531 
z
" transform="scale(0.015625)"/>
       </defs>
       <use xlink:href="#DejaVuSans-30"/>
       <use xlink:href="#DejaVuSans-2e" x="63.623047"/>
       <use xlink:href="#DejaVuSans-32" x="95.410156"/>
      </g>
     </g>
    </g>
    <g id="ytick_3">
     <g id="line2d_9">
      <path d="M 47.81 151.67499 
L 651.6 151.67499 
" clip-path="url(#p359fd318bb)" style="fill: none; stroke: #b0b0b0; stroke-opacity: 0.3; stroke-width: 0.8; stroke-linecap: square"/>
     </g>
     <g id="line2d_10">
      <g>
       <use xlink:href="#mf3976f013d" x="47.81" y="151.67499" style="stroke: #000000; stroke-width: 0.8"/>
      </g>
     </g>
     <g id="text_7">
      <!-- 0.4 -->
      <g transform="translate(24.906875 155.474209) scale(0.1 -0.1)">
       <defs>
        <path id="DejaVuSans-34" d="M 2419 4116 
L 825 1625 
L 2419 1625 
L 2419 4116 
z
M 2253 4666 
L 3047 4666 
L 3047 1625 
L 3713 1625 
L 3713 1100 
L 3047 1100 
L 3047 0 
L 2419 0 
L 2419 1100 
L 313 1100 
L 313 1709 
L 2253 4666 
z
" transform="scale(0.015625)"/>
       </defs>
       <use xlink:href="#DejaVuSans-30"/>
       <use xlink:href="#DejaVuSans-2e" x="63.623047"/>
       <use xlink:href="#DejaVuSans-34" x="95.410156"/>
      </g>
     </g>
    </g>
    <g id="ytick_4">
     <g id="line2d_11">
      <path d="M 47.81 123.769652 
L 651.6 123.769652 
" clip-path="url(#p359fd318bb)" style="fill: none; stroke: #b0b0b0; stroke-opacity: 0.3; stroke-width: 0.8; stroke-linecap: square"/>
     </g>
     <g id="line2d_12">
      <g>
       <use xlink:href="#mf3976f013d" x="47.81" y="123.769652" style="stroke: #000000; stroke-width: 0.8"/>
      </g>
     </g>
     <g id="text_8">
      <!-- 0.6 -->
      <g transform="translate(24.906875 127.56887) scale(0.1 -0.1)">
       <defs>
        <path id="DejaVuSans-36" d="M 2113 2584 
Q 1688 2584 1439 2293 
Q 1191 2003 1191 1497 
Q 1191 994 1439 701 
Q 1688 409 2113 409 
Q 2538 409 2786 701 
Q 3034 994 3034 1497 
Q 3034 2003 2786 2293 
Q 2538 2584 2113 2584 
z
M 3366 4563 
L 3366 3988 
Q 3128 4100 2886 4159 
Q 2644 4219 2406 4219 
Q 1781 4219 1451 3797 
Q 1122 3375 1075 2522 
Q 1259 2794 1537 2939 
Q 1816 3084 2150 3084 
Q 2853 3084 3261 2657 
Q 3669 2231 3669 1497 
Q 3669 778 3244 343 
Q 2819 -91 2113 -91 
Q 1303 -91 875 529 
Q 447 1150 447 2328 
Q 447 3434 972 4092 
Q 1497 4750 2381 4750 
Q 2619 4750 2861 4703 
Q 3103 4656 3366 4563 
z
" transform="scale(0.015625)"/>
       </defs>
       <use xlink:href="#DejaVuSans-30"/>
       <use xlink:href="#DejaVuSans-2e" x="63.623047"/>
       <use xlink:href="#DejaVuSans-36" x="95.410156"/>
      </g>
     </g>
    </g>
    <g id="ytick_5">
     <g id="line2d_13">
      <path d="M 47.81 95.864313 
L 651.6 95.864313 
" clip-path="url(#p359fd318bb)" style="fill: none; stroke: #b0b0b0; stroke-opacity: 0.3; stroke-width: 0.8; stroke-linecap: square"/>
     </g>
     <g id="line2d_14">
      <g>
       <use xlink:href="#mf3976f013d" x="47.81" y="95.864313" style="stroke: #000000; stroke-width: 0.8"/>
      </g>
     </g>
     <g id="text_9">
      <!-- 0.8 -->
      <g transform="translate(24.906875 99.663532) scale(0.1 -0.1)">
       <defs>
        <path id="DejaVuSans-38" d="M 2034 2216 
Q 1584 2216 1326 1975 
Q 1069 1734 1069 1313 
Q 1069 891 1326 650 
Q 1584 409 2034 409 
Q 2484 409 2743 651 
Q 3003 894 3003 1313 
Q 3003 1734 2745 1975 
Q 2488 2216 2034 2216 
z
M 1403 2484 
Q 997 2584 770 2862 
Q 544 3141 544 3541 
Q 544 4100 942 4425 
Q 1341 4750 2034 4750 
Q 2731 4750 3128 4425 
Q 3525 4100 3525 3541 
Q 3525 3141 3298 2862 
Q 3072 2584 2669 2484 
Q 3125 2378 3379 2068 
Q 3634 1759 3634 1313 
Q 3634 634 3220 271 
Q 2806 -91 2034 -91 
Q 1263 -91 848 271 
Q 434 634 434 1313 
Q 434 1759 690 2068 
Q 947 2378 1403 2484 
z
M 1172 3481 
Q 1172 3119 1398 2916 
Q 1625 2713 2034 2713 
Q 2441 2713 2670 2916 
Q 2900 3119 2900 3481 
Q 2900 3844 2670 4047 
Q 2441 4250 2034 4250 
Q 1625 4250 1398 4047 
Q 1172 3844 1172 3481 
z
" transform="scale(0.015625)"/>
       </defs>
       <use xlink:href="#DejaVuSans-30"/>
       <use xlink:href="#DejaVuSans-2e" x="63.623047"/>
       <use xlink:href="#DejaVuSans-38" x="95.410156"/>
      </g>
     </g>
    </g>
    <g id="ytick_6">
     <g id="line2d_15">
      <path d="M 47.81 67.958974 
L 651.6 67.958974 
" clip-path="url(#p359fd318bb)" style="fill: none; stroke: #b0b0b0; stroke-opacity: 0.3; stroke-width: 0.8; stroke-linecap: square"/>
     </g>
     <g id="line2d_16">
      <g>
       <use xlink:href="#mf3976f013d" x="47.81" y="67.958974" style="stroke: #000000; stroke-width: 0.8"/>
      </g>
     </g>
     <g id="text_10">
      <!-- 1.0 -->
      <g transform="translate(24.906875 71.758193) scale(0.1 -0.1)">
       <defs>
        <path id="DejaVuSans-31" d="M 794 531 
L 1825 531 
L 1825 4091 
L 703 3866 
L 703 4441 
L 1819 4666 
L 2450 4666 
L 2450 531 
L 3481 531 
L 3481 0 
L 794 0 
L 794 531 
z
" transform="scale(0.015625)"/>
       </defs>
       <use xlink:href="#DejaVuSans-31"/>
       <use xlink:href="#DejaVuSans-2e" x="63.623047"/>
       <use xlink:href="#DejaVuSans-30" x="95.410156"/>
      </g>
     </g>
    </g>
    <g id="ytick_7">
     <g id="line2d_17">
      <path d="M 47.81 40.053635 
L 651.6 40.053635 
" clip-path="url(#p359fd318bb)" style="fill: none; stroke: #b0b0b0; stroke-opacity: 0.3; stroke-width: 0.8; stroke-linecap: square"/>
     </g>
     <g id="line2d_18">
      <g>
       <use xlink:href="#mf3976f013d" x="47.81" y="40.053635" style="stroke: #000000; stroke-width: 0.8"/>
      </g>
     </g>
     <g id="text_11">
      <!-- 1.2 -->
      <g transform="translate(24.906875 43.852854) scale(0.1 -0.1)">
       <use xlink:href="#DejaVuSans-31"/>
       <use xlink:href="#DejaVuSans-2e" x="63.623047"/>
       <use xlink:href="#DejaVuSans-32" x="95.410156"/>
      </g>
     </g>
    </g>
    <g id="text_12">
     <!-- Cross-Entropy (lower = more separable) -->
     <g transform="translate(18.827188 217.139396) rotate(-90) scale(0.1 -0.1)">
      <defs>
       <path id="DejaVuSans-2d" d="M 313 2009 
L 1997 2009 
L 1997 1497 
L 313 1497 
L 313 2009 
z
" transform="scale(0.015625)"/>
       <path id="DejaVuSans-45" d="M 628 4666 
L 3578 4666 
L 3578 4134 
L 1259 4134 
L 1259 2753 
L 3481 2753 
L 3481 2222 
L 1259 2222 
L 1259 531 
L 3634 531 
L 3634 0 
L 628 0 
L 628 4666 
z
" transform="scale(0.015625)"/>
       <path id="DejaVuSans-70" d="M 1159 525 
L 1159 -1331 
L 581 -1331 
L 581 3500 
L 1159 3500 
L 1159 2969 
Q 1341 3281 1617 3432 
Q 1894 3584 2278 3584 
Q 2916 3584 3314 3078 
Q 3713 2572 3713 1747 
Q 3713 922 3314 415 
Q 2916 -91 2278 -91 
Q 1894 -91 1617 61 
Q 1341 213 1159 525 
z
M 3116 1747 
Q 3116 2381 2855 2742 
Q 2594 3103 2138 3103 
Q 1681 3103 1420 2742 
Q 1159 2381 1159 1747 
Q 1159 1113 1420 752 
Q 1681 391 2138 391 
Q 2594 391 2855 752 
Q 3116 1113 3116 1747 
z
" transform="scale(0.015625)"/>
       <path id="DejaVuSans-20" transform="scale(0.015625)"/>
       <path id="DejaVuSans-28" d="M 1984 4856 
Q 1566 4138 1362 3434 
Q 1159 2731 1159 2009 
Q 1159 1288 1364 580 
Q 1569 -128 1984 -844 
L 1484 -844 
Q 1016 -109 783 600 
Q 550 1309 550 2009 
Q 550 2706 781 3412 
Q 1013 4119 1484 4856 
L 1984 4856 
z
" transform="scale(0.015625)"/>
       <path id="DejaVuSans-3d" d="M 678 2906 
L 4684 2906 
L 4684 2381 
L 678 2381 
L 678 2906 
z
M 678 1631 
L 4684 1631 
L 4684 1100 
L 678 1100 
L 678 1631 
z
" transform="scale(0.015625)"/>
       <path id="DejaVuSans-29" d="M 513 4856 
L 1013 4856 
Q 1481 4119 1714 3412 
Q 1947 2706 1947 2009 
Q 1947 1309 1714 600 
Q 1481 -109 1013 -844 
L 513 -844 
Q 928 -128 1133 580 
Q 1338 1288 1338 2009 
Q 1338 2731 1133 3434 
Q 928 4138 513 4856 
z
" transform="scale(0.015625)"/>
      </defs>
      <use xlink:href="#DejaVuSans-43"/>
      <use xlink:href="#DejaVuSans-72" x="69.824219"/>
      <use xlink:href="#DejaVuSans-6f" x="108.6875"/>
      <use xlink:href="#DejaVuSans-73" x="169.869141"/>
      <use xlink:href="#DejaVuSans-73" x="221.96875"/>
      <use xlink:href="#DejaVuSans-2d" x="274.068359"/>
      <use xlink:href="#DejaVuSans-45" x="310.152344"/>
      <use xlink:href="#DejaVuSans-6e" x="373.335938"/>
      <use xlink:href="#DejaVuSans-74" x="436.714844"/>
      <use xlink:href="#DejaVuSans-72" x="475.923828"/>
      <use xlink:href="#DejaVuSans-6f" x="514.787109"/>
      <use xlink:href="#DejaVuSans-70" x="575.96875"/>
      <use xlink:href="#DejaVuSans-79" x="639.445312"/>
      <use xlink:href="#DejaVuSans-20" x="698.625"/>
      <use xlink:href="#DejaVuSans-28" x="730.412109"/>
      <use xlink:href="#DejaVuSans-6c" x="769.425781"/>
      <use xlink:href="#DejaVuSans-6f" x="797.208984"/>
      <use xlink:href="#DejaVuSans-77" x="858.390625"/>
      <use xlink:href="#DejaVuSans-65" x="940.177734"/>
      <use xlink:href="#DejaVuSans-72" x="1001.701172"/>
      <use xlink:href="#DejaVuSans-20" x="1042.814453"/>
      <use xlink:href="#DejaVuSans-3d" x="1074.601562"/>
      <use xlink:href="#DejaVuSans-20" x="1158.390625"/>
      <use xlink:href="#DejaVuSans-6d" x="1190.177734"/>
      <use xlink:href="#DejaVuSans-6f" x="1287.589844"/>
      <use xlink:href="#DejaVuSans-72" x="1348.771484"/>
      <use xlink:href="#DejaVuSans-65" x="1387.634766"/>
      <use xlink:href="#DejaVuSans-20" x="1449.158203"/>
      <use xlink:href="#DejaVuSans-73" x="1480.945312"/>
      <use xlink:href="#DejaVuSans-65" x="1533.044922"/>
      <use xlink:href="#DejaVuSans-70" x="1594.568359"/>
      <use xlink:href="#DejaVuSans-61" x="1658.044922"/>
      <use xlink:href="#DejaVuSans-72" x="1719.324219"/>
      <use xlink:href="#DejaVuSans-61" x="1760.4375"/>
      <use xlink:href="#DejaVuSans-62" x="1821.716797"/>
      <use xlink:href="#DejaVuSans-6c" x="1885.193359"/>
      <use xlink:href="#DejaVuSans-65" x="1912.976562"/>
      <use xlink:href="#DejaVuSans-29" x="1974.5"/>
     </g>
    </g>
   </g>
   <g id="LineCollection_1">
    <path d="M 94.132513 49.774628 
L 94.132513 34.108841 
" clip-path="url(#p359fd318bb)" style="fill: none; stroke: #000000; stroke-width: 1.5"/>
    <path d="M 239.344153 77.044572 
L 239.344153 51.83982 
" clip-path="url(#p359fd318bb)" style="fill: none; stroke: #000000; stroke-width: 1.5"/>
    <path d="M 384.555794 44.272669 
L 384.555794 35.845366 
" clip-path="url(#p359fd318bb)" style="fill: none; stroke: #000000; stroke-width: 1.5"/>
    <path d="M 529.767434 73.082363 
L 529.767434 61.114367 
" clip-path="url(#p359fd318bb)" style="fill: none; stroke: #000000; stroke-width: 1.5"/>
   </g>
   <g id="line2d_19">
    <defs>
     <path id="m56220424cd" d="M 3 0 
L -3 -0 
" style="stroke: #000000"/>
    </defs>
    <g clip-path="url(#p359fd318bb)">
     <use xlink:href="#m56220424cd" x="94.132513" y="49.774628" style="stroke: #000000"/>
     <use xlink:href="#m56220424cd" x="239.344153" y="77.044572" style="stroke: #000000"/>
     <use xlink:href="#m56220424cd" x="384.555794" y="44.272669" style="stroke: #000000"/>
     <use xlink:href="#m56220424cd" x="529.767434" y="73.082363" style="stroke: #000000"/>
    </g>
   </g>
   <g id="line2d_20">
    <g clip-path="url(#p359fd318bb)">
     <use xlink:href="#m56220424cd" x="94.132513" y="34.108841" style="stroke: #000000"/>
     <use xlink:href="#m56220424cd" x="239.344153" y="51.83982" style="stroke: #000000"/>
     <use xlink:href="#m56220424cd" x="384.555794" y="35.845366" style="stroke: #000000"/>
     <use xlink:href="#m56220424cd" x="529.767434" y="61.114367" style="stroke: #000000"/>
    </g>
   </g>
   <g id="LineCollection_2">
    <path d="M 131.88754 51.897751 
L 131.88754 36.860792 
" clip-path="url(#p359fd318bb)" style="fill: none; stroke: #000000; stroke-width: 1.5"/>
    <path d="M 277.09918 83.015685 
L 277.09918 64.610448 
" clip-path="url(#p359fd318bb)" style="fill: none; stroke: #000000; stroke-width: 1.5"/>
    <path d="M 422.31082 51.967626 
L 422.31082 41.43792 
" clip-path="url(#p359fd318bb)" style="fill: none; stroke: #000000; stroke-width: 1.5"/>
    <path d="M 567.52246 187.836397 
L 567.52246 175.886211 
" clip-path="url(#p359fd318bb)" style="fill: none; stroke: #000000; stroke-width: 1.5"/>
   </g>
   <g id="line2d_21">
    <g clip-path="url(#p359fd318bb)">
     <use xlink:href="#m56220424cd" x="131.88754" y="51.897751" style="stroke: #000000"/>
     <use xlink:href="#m56220424cd" x="277.09918" y="83.015685" style="stroke: #000000"/>
     <use xlink:href="#m56220424cd" x="422.31082" y="51.967626" style="stroke: #000000"/>
     <use xlink:href="#m56220424cd" x="567.52246" y="187.836397" style="stroke: #000000"/>
    </g>
   </g>
   <g id="line2d_22">
    <g clip-path="url(#p359fd318bb)">
     <use xlink:href="#m56220424cd" x="131.88754" y="36.860792" style="stroke: #000000"/>
     <use xlink:href="#m56220424cd" x="277.09918" y="64.610448" style="stroke: #000000"/>
     <use xlink:href="#m56220424cd" x="422.31082" y="41.43792" style="stroke: #000000"/>
     <use xlink:href="#m56220424cd" x="567.52246" y="175.886211" style="stroke: #000000"/>
    </g>
   </g>
   <g id="LineCollection_3">
    <path d="M 169.642566 85.241051 
L 169.642566 56.647919 
" clip-path="url(#p359fd318bb)" style="fill: none; stroke: #000000; stroke-width: 1.5"/>
    <path d="M 314.854206 158.020509 
L 314.854206 134.525078 
" clip-path="url(#p359fd318bb)" style="fill: none; stroke: #000000; stroke-width: 1.5"/>
    <path d="M 460.065847 70.638619 
L 460.065847 57.559142 
" clip-path="url(#p359fd318bb)" style="fill: none; stroke: #000000; stroke-width: 1.5"/>
    <path d="M 605.277487 187.27245 
L 605.277487 175.984121 
" clip-path="url(#p359fd318bb)" style="fill: none; stroke: #000000; stroke-width: 1.5"/>
   </g>
   <g id="line2d_23">
    <g clip-path="url(#p359fd318bb)">
     <use xlink:href="#m56220424cd" x="169.642566" y="85.241051" style="stroke: #000000"/>
     <use xlink:href="#m56220424cd" x="314.854206" y="158.020509" style="stroke: #000000"/>
     <use xlink:href="#m56220424cd" x="460.065847" y="70.638619" style="stroke: #000000"/>
     <use xlink:href="#m56220424cd" x="605.277487" y="187.27245" style="stroke: #000000"/>
    </g>
   </g>
   <g id="line2d_24">
    <g clip-path="url(#p359fd318bb)">
     <use xlink:href="#m56220424cd" x="169.642566" y="56.647919" style="stroke: #000000"/>
     <use xlink:href="#m56220424cd" x="314.854206" y="134.525078" style="stroke: #000000"/>
     <use xlink:href="#m56220424cd" x="460.065847" y="57.559142" style="stroke: #000000"/>
     <use xlink:href="#m56220424cd" x="605.277487" y="175.984121" style="stroke: #000000"/>
    </g>
   </g>
   <g id="patch_15">
    <path d="M 47.81 207.485668 
L 47.81 25.44 
" style="fill: none; stroke: #000000; stroke-width: 0.8; stroke-linejoin: miter; stroke-linecap: square"/>
   </g>
   <g id="patch_16">
    <path d="M 651.6 207.485668 
L 651.6 25.44 
" style="fill: none; stroke: #000000; stroke-width: 0.8; stroke-linejoin: miter; stroke-linecap: square"/>
   </g>
   <g id="patch_17">
    <path d="M 47.81 207.485668 
L 651.6 207.485668 
" style="fill: none; stroke: #000000; stroke-width: 0.8; stroke-linejoin: miter; stroke-linecap: square"/>
   </g>
   <g id="patch_18">
    <path d="M 47.81 25.44 
L 651.6 25.44 
" style="fill: none; stroke: #000000; stroke-width: 0.8; stroke-linejoin: miter; stroke-linecap: square"/>
   </g>
   <g id="text_13">
    <!-- LOOCV project probe CE (mean±std across 5 targets) -->
    <g transform="translate(188.94625 19.44) scale(0.12 -0.12)">
     <defs>
      <path id="DejaVuSans-4c" d="M 628 4666 
L 1259 4666 
L 1259 531 
L 3531 531 
L 3531 0 
L 628 0 
L 628 4666 
z
" transform="scale(0.015625)"/>
      <path id="DejaVuSans-4f" d="M 2522 4238 
Q 1834 4238 1429 3725 
Q 1025 3213 1025 2328 
Q 1025 1447 1429 934 
Q 1834 422 2522 422 
Q 3209 422 3611 934 
Q 4013 1447 4013 2328 
Q 4013 3213 3611 3725 
Q 3209 4238 2522 4238 
z
M 2522 4750 
Q 3503 4750 4090 4092 
Q 4678 3434 4678 2328 
Q 4678 1225 4090 567 
Q 3503 -91 2522 -91 
Q 1538 -91 948 565 
Q 359 1222 359 2328 
Q 359 3434 948 4092 
Q 1538 4750 2522 4750 
z
" transform="scale(0.015625)"/>
      <path id="DejaVuSans-56" d="M 1831 0 
L 50 4666 
L 709 4666 
L 2188 738 
L 3669 4666 
L 4325 4666 
L 2547 0 
L 1831 0 
z
" transform="scale(0.015625)"/>
      <path id="DejaVuSans-6a" d="M 603 3500 
L 1178 3500 
L 1178 -63 
Q 1178 -731 923 -1031 
Q 669 -1331 103 -1331 
L -116 -1331 
L -116 -844 
L 38 -844 
Q 366 -844 484 -692 
Q 603 -541 603 -63 
L 603 3500 
z
M 603 4863 
L 1178 4863 
L 1178 4134 
L 603 4134 
L 603 4863 
z
" transform="scale(0.015625)"/>
      <path id="DejaVuSans-b1" d="M 2944 4013 
L 2944 2803 
L 4684 2803 
L 4684 2272 
L 2944 2272 
L 2944 1063 
L 2419 1063 
L 2419 2272 
L 678 2272 
L 678 2803 
L 2419 2803 
L 2419 4013 
L 2944 4013 
z
M 678 531 
L 4684 531 
L 4684 0 
L 678 0 
L 678 531 
z
" transform="scale(0.015625)"/>
      <path id="DejaVuSans-35" d="M 691 4666 
L 3169 4666 
L 3169 4134 
L 1269 4134 
L 1269 2991 
Q 1406 3038 1543 3061 
Q 1681 3084 1819 3084 
Q 2600 3084 3056 2656 
Q 3513 2228 3513 1497 
Q 3513 744 3044 326 
Q 2575 -91 1722 -91 
Q 1428 -91 1123 -41 
Q 819 9 494 109 
L 494 744 
Q 775 591 1075 516 
Q 1375 441 1709 441 
Q 2250 441 2565 725 
Q 2881 1009 2881 1497 
Q 2881 1984 2565 2268 
Q 2250 2553 1709 2553 
Q 1456 2553 1204 2497 
Q 953 2441 691 2322 
L 691 4666 
z
" transform="scale(0.015625)"/>
     </defs>
     <use xlink:href="#DejaVuSans-4c"/>
     <use xlink:href="#DejaVuSans-4f" x="52.087891"/>
     <use xlink:href="#DejaVuSans-4f" x="130.798828"/>
     <use xlink:href="#DejaVuSans-43" x="209.509766"/>
     <use xlink:href="#DejaVuSans-56" x="279.333984"/>
     <use xlink:href="#DejaVuSans-20" x="347.742188"/>
     <use xlink:href="#DejaVuSans-70" x="379.529297"/>
     <use xlink:href="#DejaVuSans-72" x="443.005859"/>
     <use xlink:href="#DejaVuSans-6f" x="481.869141"/>
     <use xlink:href="#DejaVuSans-6a" x="543.050781"/>
     <use xlink:href="#DejaVuSans-65" x="570.833984"/>
     <use xlink:href="#DejaVuSans-63" x="632.357422"/>
     <use xlink:href="#DejaVuSans-74" x="687.337891"/>
     <use xlink:href="#DejaVuSans-20" x="726.546875"/>
     <use xlink:href="#DejaVuSans-70" x="758.333984"/>
     <use xlink:href="#DejaVuSans-72" x="821.810547"/>
     <use xlink:href="#DejaVuSans-6f" x="860.673828"/>
     <use xlink:href="#DejaVuSans-62" x="921.855469"/>
     <use xlink:href="#DejaVuSans-65" x="985.332031"/>
     <use xlink:href="#DejaVuSans-20" x="1046.855469"/>
     <use xlink:href="#DejaVuSans-43" x="1078.642578"/>
     <use xlink:href="#DejaVuSans-45" x="1148.466797"/>
     <use xlink:href="#DejaVuSans-20" x="1211.650391"/>
     <use xlink:href="#DejaVuSans-28" x="1243.4375"/>
     <use xlink:href="#DejaVuSans-6d" x="1282.451172"/>
     <use xlink:href="#DejaVuSans-65" x="1379.863281"/>
     <use xlink:href="#DejaVuSans-61" x="1441.386719"/>
     <use xlink:href="#DejaVuSans-6e" x="1502.666016"/>
     <use xlink:href="#DejaVuSans-b1" x="1566.044922"/>
     <use xlink:href="#DejaVuSans-73" x="1649.833984"/>
     <use xlink:href="#DejaVuSans-74" x="1701.933594"/>
     <use xlink:href="#DejaVuSans-64" x="1741.142578"/>
     <use xlink:href="#DejaVuSans-20" x="1804.619141"/>
     <use xlink:href="#DejaVuSans-61" x="1836.40625"/>
     <use xlink:href="#DejaVuSans-63" x="1897.685547"/>
     <use xlink:href="#DejaVuSans-72" x="1952.666016"/>
     <use xlink:href="#DejaVuSans-6f" x="1991.529297"/>
     <use xlink:href="#DejaVuSans-73" x="2052.710938"/>
     <use xlink:href="#DejaVuSans-73" x="2104.810547"/>
     <use xlink:href="#DejaVuSans-20" x="2156.910156"/>
     <use xlink:href="#DejaVuSans-35" x="2188.697266"/>
     <use xlink:href="#DejaVuSans-20" x="2252.320312"/>
     <use xlink:href="#DejaVuSans-74" x="2284.107422"/>
     <use xlink:href="#DejaVuSans-61" x="2323.316406"/>
     <use xlink:href="#DejaVuSans-72" x="2384.595703"/>
     <use xlink:href="#DejaVuSans-67" x="2423.958984"/>
     <use xlink:href="#DejaVuSans-65" x="2487.435547"/>
     <use xlink:href="#DejaVuSans-74" x="2548.958984"/>
     <use xlink:href="#DejaVuSans-73" x="2588.167969"/>
     <use xlink:href="#DejaVuSans-29" x="2640.267578"/>
    </g>
   </g>
   <g id="legend_1">
    <g id="patch_19">
     <path d="M 427.86 46.77 
L 645.3 46.77 
Q 647.1 46.77 647.1 44.97 
L 647.1 31.74 
Q 647.1 29.94 645.3 29.94 
L 427.86 29.94 
Q 426.06 29.94 426.06 31.74 
L 426.06 44.97 
Q 426.06 46.77 427.86 46.77 
z
" style="fill: #ffffff; opacity: 0.8; stroke: #cccccc; stroke-linejoin: miter"/>
    </g>
    <g id="patch_20">
     <path d="M 429.66 40.38 
L 447.66 40.38 
L 447.66 34.08 
L 429.66 34.08 
z
" style="fill: #1f77b4"/>
    </g>
    <g id="text_14">
     <!-- CE($\mathbf{H}_{file}$) -->
     <g transform="translate(454.86 40.38) scale(0.09 -0.09)">
      <defs>
       <path id="DejaVuSans-Bold-48" d="M 588 4666 
L 1791 4666 
L 1791 2888 
L 3566 2888 
L 3566 4666 
L 4769 4666 
L 4769 0 
L 3566 0 
L 3566 1978 
L 1791 1978 
L 1791 0 
L 588 0 
L 588 4666 
z
" transform="scale(0.015625)"/>
       <path id="DejaVuSans-Oblique-66" d="M 3059 4863 
L 2969 4384 
L 2419 4384 
Q 2106 4384 1964 4261 
Q 1822 4138 1753 3809 
L 1691 3500 
L 2638 3500 
L 2553 3053 
L 1606 3053 
L 1013 0 
L 434 0 
L 1031 3053 
L 481 3053 
L 563 3500 
L 1113 3500 
L 1159 3744 
Q 1278 4363 1576 4613 
Q 1875 4863 2516 4863 
L 3059 4863 
z
" transform="scale(0.015625)"/>
       <path id="DejaVuSans-Oblique-69" d="M 1172 4863 
L 1747 4863 
L 1606 4134 
L 1031 4134 
L 1172 4863 
z
M 909 3500 
L 1484 3500 
L 800 0 
L 225 0 
L 909 3500 
z
" transform="scale(0.015625)"/>
       <path id="DejaVuSans-Oblique-6c" d="M 1172 4863 
L 1747 4863 
L 800 0 
L 225 0 
L 1172 4863 
z
" transform="scale(0.015625)"/>
       <path id="DejaVuSans-Oblique-65" d="M 3078 2063 
Q 3088 2113 3092 2166 
Q 3097 2219 3097 2272 
Q 3097 2653 2873 2875 
Q 2650 3097 2266 3097 
Q 1838 3097 1509 2826 
Q 1181 2556 1013 2059 
L 3078 2063 
z
M 3578 1613 
L 903 1613 
Q 884 1494 878 1425 
Q 872 1356 872 1306 
Q 872 872 1139 634 
Q 1406 397 1894 397 
Q 2269 397 2603 481 
Q 2938 566 3225 728 
L 3116 159 
Q 2806 34 2476 -28 
Q 2147 -91 1806 -91 
Q 1078 -91 686 257 
Q 294 606 294 1247 
Q 294 1794 489 2264 
Q 684 2734 1063 3103 
Q 1306 3334 1642 3459 
Q 1978 3584 2356 3584 
Q 2950 3584 3301 3228 
Q 3653 2872 3653 2272 
Q 3653 2128 3634 1964 
Q 3616 1800 3578 1613 
z
" transform="scale(0.015625)"/>
      </defs>
      <use xlink:href="#DejaVuSans-43" transform="translate(0 0.125)"/>
      <use xlink:href="#DejaVuSans-45" transform="translate(69.824219 0.125)"/>
      <use xlink:href="#DejaVuSans-28" transform="translate(133.007812 0.125)"/>
      <use xlink:href="#DejaVuSans-Bold-48" transform="translate(172.021484 0.125)"/>
      <use xlink:href="#DejaVuSans-Oblique-66" transform="translate(256.669922 -16.28125) scale(0.7)"/>
      <use xlink:href="#DejaVuSans-Oblique-69" transform="translate(281.313477 -16.28125) scale(0.7)"/>
      <use xlink:href="#DejaVuSans-Oblique-6c" transform="translate(300.761719 -16.28125) scale(0.7)"/>
      <use xlink:href="#DejaVuSans-Oblique-65" transform="translate(320.209961 -16.28125) scale(0.7)"/>
      <use xlink:href="#DejaVuSans-29" transform="translate(366.010742 0.125)"/>
     </g>
    </g>
    <g id="patch_21">
     <path d="M 509.4 40.38 
L 527.4 40.38 
L 527.4 34.08 
L 509.4 34.08 
z
" style="fill: #ff7f0e"/>
    </g>
    <g id="text_15">
     <!-- CE($\mathbf{Z}_{sh}$) -->
     <g transform="translate(534.6 40.38) scale(0.09 -0.09)">
      <defs>
       <path id="DejaVuSans-Bold-5a" d="M 359 4666 
L 4281 4666 
L 4281 3938 
L 1778 909 
L 4353 909 
L 4353 0 
L 288 0 
L 288 728 
L 2791 3756 
L 359 3756 
L 359 4666 
z
" transform="scale(0.015625)"/>
       <path id="DejaVuSans-Oblique-73" d="M 3200 3397 
L 3091 2853 
Q 2863 2978 2609 3040 
Q 2356 3103 2088 3103 
Q 1634 3103 1373 2948 
Q 1113 2794 1113 2528 
Q 1113 2219 1719 2053 
Q 1766 2041 1788 2034 
L 1972 1978 
Q 2547 1819 2739 1644 
Q 2931 1469 2931 1166 
Q 2931 609 2489 259 
Q 2047 -91 1331 -91 
Q 1053 -91 747 -37 
Q 441 16 72 128 
L 184 722 
Q 500 559 806 475 
Q 1113 391 1394 391 
Q 1816 391 2080 572 
Q 2344 753 2344 1031 
Q 2344 1331 1650 1516 
L 1591 1531 
L 1394 1581 
Q 956 1697 753 1886 
Q 550 2075 550 2369 
Q 550 2928 970 3256 
Q 1391 3584 2113 3584 
Q 2397 3584 2667 3537 
Q 2938 3491 3200 3397 
z
" transform="scale(0.015625)"/>
       <path id="DejaVuSans-Oblique-68" d="M 3566 2113 
L 3156 0 
L 2578 0 
L 2988 2091 
Q 3016 2238 3031 2350 
Q 3047 2463 3047 2528 
Q 3047 2791 2881 2937 
Q 2716 3084 2419 3084 
Q 1956 3084 1617 2771 
Q 1278 2459 1178 1941 
L 800 0 
L 225 0 
L 1172 4863 
L 1747 4863 
L 1375 2950 
Q 1594 3244 1934 3414 
Q 2275 3584 2650 3584 
Q 3113 3584 3367 3334 
Q 3622 3084 3622 2631 
Q 3622 2519 3608 2391 
Q 3594 2263 3566 2113 
z
" transform="scale(0.015625)"/>
      </defs>
      <use xlink:href="#DejaVuSans-43" transform="translate(0 0.125)"/>
      <use xlink:href="#DejaVuSans-45" transform="translate(69.824219 0.125)"/>
      <use xlink:href="#DejaVuSans-28" transform="translate(133.007812 0.125)"/>
      <use xlink:href="#DejaVuSans-Bold-5a" transform="translate(172.021484 0.125)"/>
      <use xlink:href="#DejaVuSans-Oblique-73" transform="translate(245.488281 -16.28125) scale(0.7)"/>
      <use xlink:href="#DejaVuSans-Oblique-68" transform="translate(281.958008 -16.28125) scale(0.7)"/>
      <use xlink:href="#DejaVuSans-29" transform="translate(329.057617 0.125)"/>
     </g>
    </g>
    <g id="patch_22">
     <path d="M 585.81 40.38 
L 603.81 40.38 
L 603.81 34.08 
L 585.81 34.08 
z
" style="fill: #2ca02c"/>
    </g>
    <g id="text_16">
     <!-- CE($\mathbf{Z}_{pr}$) -->
     <g transform="translate(611.01 40.38) scale(0.09 -0.09)">
      <defs>
       <path id="DejaVuSans-Oblique-70" d="M 3175 2156 
Q 3175 2616 2975 2859 
Q 2775 3103 2400 3103 
Q 2144 3103 1911 2972 
Q 1678 2841 1497 2591 
Q 1319 2344 1212 1994 
Q 1106 1644 1106 1300 
Q 1106 863 1306 627 
Q 1506 391 1875 391 
Q 2147 391 2380 519 
Q 2613 647 2778 891 
Q 2956 1147 3065 1494 
Q 3175 1841 3175 2156 
z
M 1394 2969 
Q 1625 3272 1939 3428 
Q 2253 3584 2638 3584 
Q 3175 3584 3472 3232 
Q 3769 2881 3769 2247 
Q 3769 1728 3584 1258 
Q 3400 788 3053 416 
Q 2822 169 2531 39 
Q 2241 -91 1919 -91 
Q 1547 -91 1294 64 
Q 1041 219 916 525 
L 556 -1331 
L -19 -1331 
L 922 3500 
L 1497 3500 
L 1394 2969 
z
" transform="scale(0.015625)"/>
       <path id="DejaVuSans-Oblique-72" d="M 2853 2969 
Q 2766 3016 2653 3041 
Q 2541 3066 2413 3066 
Q 1953 3066 1609 2717 
Q 1266 2369 1153 1784 
L 800 0 
L 225 0 
L 909 3500 
L 1484 3500 
L 1375 2956 
Q 1603 3259 1920 3421 
Q 2238 3584 2597 3584 
Q 2691 3584 2781 3573 
Q 2872 3563 2963 3538 
L 2853 2969 
z
" transform="scale(0.015625)"/>
      </defs>
      <use xlink:href="#DejaVuSans-43" transform="translate(0 0.125)"/>
      <use xlink:href="#DejaVuSans-45" transform="translate(69.824219 0.125)"/>
      <use xlink:href="#DejaVuSans-28" transform="translate(133.007812 0.125)"/>
      <use xlink:href="#DejaVuSans-Bold-5a" transform="translate(172.021484 0.125)"/>
      <use xlink:href="#DejaVuSans-Oblique-70" transform="translate(245.488281 -16.28125) scale(0.7)"/>
      <use xlink:href="#DejaVuSans-Oblique-72" transform="translate(289.921875 -16.28125) scale(0.7)"/>
      <use xlink:href="#DejaVuSans-29" transform="translate(321.435547 0.125)"/>
     </g>
    </g>
   </g>
  </g>
 </g>
 <defs>
  <clipPath id="p359fd318bb">
   <rect x="47.81" y="25.44" width="603.79" height="182.045668"/>
  </clipPath>
 </defs>
</svg>
